<?xml version="1.0" standalone="no"?>
<!DOCTYPE svg PUBLIC "-//W3C//DTD SVG 20010904//EN"
 "http://www.w3.org/TR/2001/REC-SVG-20010904/DTD/svg10.dtd">
<svg version="1.0" xmlns="http://www.w3.org/2000/svg"
 width="1306.000000pt" height="243.000000pt" viewBox="0 0 1306.000000 243.000000"
 preserveAspectRatio="xMidYMid meet">

<g transform="translate(0.000000,243.000000) scale(0.100000,-0.100000)"
fill="#000000" stroke="none">
<path d="M1845 2361 c-382 -189 -841 -651 -1175 -1183 -140 -225 -259 -501
-275 -638 -6 -52 -5 -50 28 45 45 127 85 216 150 330 259 456 702 963 1115
1274 92 70 242 165 242 154 0 -18 -146 -301 -213 -413 -79 -132 -102 -155
-240 -235 -71 -41 -49 -42 35 -2 40 20 74 34 75 33 3 -2 -197 -313 -276 -430
-100 -147 -258 -351 -363 -466 -194 -213 -361 -343 -573 -445 -60 -29 -122
-66 -136 -81 -14 -16 -68 -85 -120 -154 l-95 -125 71 3 c160 8 322 53 680 190
241 92 344 125 377 120 32 -4 28 -46 -12 -104 -38 -58 -37 -88 5 -92 17 -1
101 13 188 33 147 33 244 42 293 29 11 -3 25 -18 31 -34 13 -35 47 -58 115
-76 78 -20 180 -26 293 -16 l100 9 -125 2 c-135 1 -279 28 -312 58 -10 9 -23
33 -28 53 -7 26 -17 40 -33 44 -41 11 -180 5 -317 -13 -74 -10 -136 -17 -138
-16 -2 2 6 22 18 46 25 48 30 103 12 121 -21 21 -125 11 -219 -21 -48 -16
-171 -64 -273 -106 -102 -42 -243 -96 -315 -120 -121 -41 -302 -81 -328 -72
-14 4 171 208 204 224 13 6 68 32 122 57 157 73 294 173 442 321 367 366 734
880 954 1337 98 201 172 418 144 418 -5 0 -63 -27 -128 -59z"/>
<path d="M1559 1943 c-302 -290 -884 -1038 -1054 -1355 -25 -46 -45 -87 -45
-92 0 -5 60 81 132 190 231 346 517 715 841 1083 240 272 239 271 233 271 -3
0 -51 -44 -107 -97z"/>
<path d="M2145 1699 c-158 -55 -285 -199 -315 -359 -26 -139 32 -222 246 -350
208 -124 269 -214 233 -343 -38 -139 -280 -219 -428 -142 -63 32 -111 118
-111 197 0 52 26 130 60 176 32 45 29 48 -35 31 -93 -26 -144 -98 -145 -205 0
-172 116 -282 307 -292 147 -8 266 31 357 118 71 67 100 132 100 225 0 138
-59 212 -272 337 -140 83 -197 137 -208 195 -22 116 85 291 216 358 70 35 159
45 196 20 24 -16 26 -21 22 -73 -3 -32 -23 -106 -46 -169 -23 -62 -42 -128
-42 -146 0 -37 24 -77 46 -77 19 0 97 161 119 245 32 124 8 227 -59 259 -49
23 -166 20 -241 -5z"/>
<path d="M6485 1701 c-80 -49 -192 -204 -293 -406 -54 -110 -171 -392 -202
-490 -32 -98 -108 -165 -189 -165 -37 0 -42 2 -36 18 61 144 59 308 -3 341
-35 18 -97 13 -127 -11 -36 -28 -65 -92 -65 -145 0 -66 35 -147 81 -186 l39
-34 -41 -47 c-50 -57 -85 -76 -139 -76 -35 0 -43 4 -60 33 -29 48 -28 185 4
310 31 120 39 136 102 185 62 49 165 183 221 289 106 198 124 381 41 391 -106
12 -403 -540 -482 -899 -28 -126 -133 -239 -221 -239 -61 0 -75 17 -75 95 0
79 21 136 101 272 70 118 75 156 23 161 -25 2 -38 -5 -72 -42 -45 -49 -90
-131 -117 -216 -50 -156 -228 -310 -358 -310 -80 0 -117 30 -132 106 -12 62 1
81 64 93 128 25 277 125 320 214 31 63 29 136 -5 168 -21 19 -36 24 -79 23
-82 0 -168 -48 -254 -140 -69 -74 -141 -195 -141 -236 0 -25 -92 -123 -149
-160 -43 -27 -82 -35 -115 -22 -26 10 -19 68 21 162 28 67 37 101 37 147 1 74
-14 97 -101 166 -54 42 -64 55 -59 72 18 59 18 84 2 90 -40 16 -94 -79 -75
-132 7 -16 0 -46 -25 -109 -63 -162 -118 -263 -179 -328 -61 -66 -98 -87 -143
-82 -27 3 -29 6 -32 54 -2 39 4 69 24 115 33 81 43 192 21 235 -26 50 -53 68
-106 68 -63 0 -129 -39 -180 -107 -41 -55 -110 -186 -130 -249 -7 -21 -15 -38
-18 -38 -12 0 7 188 25 258 19 70 23 76 99 147 122 113 221 269 278 439 41
122 29 218 -27 224 -101 12 -331 -399 -444 -790 -19 -67 -47 -144 -62 -171
-81 -149 -250 -252 -357 -217 -52 17 -68 55 -63 149 3 62 10 89 39 151 67 139
151 224 214 218 27 -3 30 -7 33 -40 3 -39 -27 -113 -50 -121 -23 -8 39 -30 66
-23 78 19 77 197 -2 227 -42 17 -127 4 -180 -27 -200 -117 -298 -415 -181
-549 80 -91 249 -67 381 54 31 28 70 72 86 96 l29 45 5 -78 c5 -91 27 -142 62
-142 35 0 51 24 114 172 94 218 131 268 198 268 70 0 80 -49 39 -195 -14 -50
-25 -102 -25 -117 -1 -158 219 -138 343 31 47 64 57 83 122 231 25 58 51 118
58 133 l12 28 43 -39 c56 -52 56 -84 -3 -235 -25 -64 -45 -129 -45 -146 0 -73
44 -111 130 -111 66 0 128 30 201 98 59 54 59 54 59 26 0 -48 40 -107 90 -132
38 -19 57 -23 120 -20 102 4 187 45 275 130 l65 64 0 -33 c0 -47 24 -98 54
-118 20 -13 41 -16 89 -13 76 5 128 29 189 88 l46 45 7 -50 c14 -113 76 -169
181 -163 78 5 140 41 203 118 43 53 46 55 96 56 29 1 70 11 95 23 24 11 44 20
45 18 2 -1 -13 -63 -33 -137 -29 -113 -35 -154 -36 -248 l-1 -114 34 -30 c46
-41 81 -34 142 31 75 80 141 264 155 431 l7 77 41 -23 c22 -13 55 -24 71 -24
33 0 108 31 119 49 11 18 26 2 26 -27 0 -46 41 -105 90 -130 38 -19 57 -23
120 -20 95 4 181 43 263 117 48 45 57 50 57 32 0 -40 28 -90 62 -111 88 -53
200 9 331 185 33 44 57 71 54 60 -31 -106 -25 -188 16 -233 16 -17 31 -22 71
-22 64 0 123 29 187 91 28 27 52 49 55 49 2 0 4 -10 4 -22 0 -43 43 -102 90
-126 38 -19 57 -23 120 -20 105 5 190 45 280 136 59 59 76 86 137 212 39 80
77 160 84 178 l14 33 43 -39 c56 -52 56 -84 -3 -235 -25 -64 -45 -129 -45
-146 0 -73 44 -111 130 -111 61 0 123 27 186 83 48 42 144 171 144 193 0 26
-20 24 -34 -5 -24 -45 -125 -151 -175 -183 -43 -27 -82 -35 -115 -22 -26 10
-19 68 21 162 28 67 37 101 37 147 1 74 -14 97 -101 166 -54 42 -64 55 -59 72
18 59 18 84 2 90 -40 16 -94 -79 -75 -132 10 -27 -37 -157 -103 -284 -100
-192 -300 -313 -416 -253 -42 22 -70 95 -57 149 6 21 15 26 64 36 128 25 277
125 320 214 31 63 29 136 -5 168 -38 36 -112 33 -197 -9 -113 -56 -244 -216
-276 -338 -21 -78 -139 -184 -207 -184 -29 0 -32 3 -37 38 -8 60 12 188 45
291 38 119 93 248 213 500 108 227 124 273 105 296 -54 65 -154 -93 -305 -476
-139 -356 -189 -451 -296 -564 -86 -91 -168 -108 -185 -38 -18 70 58 259 142
352 68 76 121 104 189 99 32 -2 55 1 55 7 4 49 -49 66 -133 41 -116 -34 -248
-164 -328 -324 -99 -196 -299 -319 -417 -258 -42 22 -70 95 -57 149 6 21 15
26 64 36 128 25 277 125 320 214 31 63 29 136 -5 168 -38 36 -112 33 -197 -9
-85 -42 -192 -154 -242 -254 -19 -39 -35 -77 -35 -84 0 -8 -19 -34 -43 -59
-40 -42 -47 -45 -94 -45 -40 0 -55 5 -75 25 -26 26 -51 101 -64 188 -3 26 -15
58 -25 71 -30 38 -10 75 85 155 194 163 344 385 354 521 6 76 -8 100 -56 100
-20 0 -50 -8 -67 -19z m55 -120 c0 -63 -120 -246 -252 -385 -43 -44 -75 -72
-72 -61 17 52 138 294 179 355 75 112 145 156 145 91z m-3019 -125 c-52 -131
-160 -304 -230 -371 l-31 -29 20 59 c45 131 175 368 244 443 l21 24 3 -25 c2
-14 -10 -59 -27 -101z m2269 13 c-51 -131 -162 -309 -235 -379 l-36 -35 25 68
c52 138 154 327 225 417 l36 45 3 -31 c2 -17 -7 -55 -18 -85z m-972 -417 c6
-43 -46 -130 -107 -178 -60 -48 -196 -122 -205 -113 -15 15 69 165 128 228 58
62 107 92 146 89 28 -2 36 -8 38 -26z m2080 0 c6 -43 -46 -130 -107 -178 -60
-48 -196 -122 -205 -113 -15 15 69 165 128 228 58 62 107 92 146 89 28 -2 36
-8 38 -26z m1310 0 c6 -43 -46 -130 -107 -178 -60 -48 -196 -122 -205 -113
-15 15 69 165 128 228 58 62 107 92 146 89 28 -2 36 -8 38 -26z m-2489 -128
c17 -22 21 -40 20 -98 -1 -83 -18 -151 -39 -151 -20 0 -58 71 -66 123 -7 48 8
112 32 137 21 21 29 19 53 -11z m429 -270 c5 -107 -27 -259 -78 -371 -35 -77
-56 -103 -81 -103 -55 0 -19 241 82 555 l32 100 20 -45 c14 -31 22 -73 25
-136z"/>
<path d="M5232 1370 c-84 -51 -53 -134 43 -116 60 12 106 91 73 124 -18 18
-79 14 -116 -8z"/>
<path d="M8970 639 c-57 -23 -75 -62 -44 -93 23 -23 58 -19 93 10 36 30 41 68
12 84 -23 12 -28 12 -61 -1z"/>
</g>
</svg>
