<?xml version="1.0" standalone="no"?>
<!DOCTYPE svg PUBLIC "-//W3C//DTD SVG 20010904//EN"
 "http://www.w3.org/TR/2001/REC-SVG-20010904/DTD/svg10.dtd">
<svg version="1.0" xmlns="http://www.w3.org/2000/svg"
 width="4138.000000pt" height="2367.000000pt" viewBox="0 0 4138.000000 2367.000000"
 preserveAspectRatio="xMidYMid meet">

<g transform="translate(0.000000,2367.000000) scale(0.100000,-0.100000)"
fill="#000000" stroke="none">
<path d="M14390 21140 c-243 -34 -390 -168 -463 -420 -57 -194 -62 -474 -14
-625 45 -138 136 -263 234 -321 39 -24 44 -24 71 -10 54 28 127 92 143 127 9
19 24 51 32 71 13 29 24 39 57 49 28 9 40 18 40 31 0 16 -9 18 -69 18 -38 0
-88 7 -111 15 -56 20 -134 78 -159 119 -18 29 -19 39 -10 96 22 135 77 246
170 339 50 50 135 109 180 126 19 7 98 -61 138 -119 27 -39 32 -42 66 -38 47
6 75 -19 75 -65 0 -47 -24 -89 -59 -104 -25 -11 -35 -28 -63 -104 -38 -104
-43 -176 -15 -218 23 -36 61 -35 137 3 43 22 74 30 110 30 108 0 144 50 143
195 -1 91 -21 223 -50 325 -43 154 -132 281 -206 295 -30 6 -36 12 -42 41 -8
45 -59 103 -110 125 -49 21 -151 30 -225 19z m114 -223 c58 -25 40 -29 -29 -5
-47 16 -76 19 -131 15 -217 -16 -292 -135 -329 -518 l-14 -144 4 131 c6 198
42 346 105 433 35 48 65 69 134 93 65 23 202 20 260 -5z m272 -47 c36 -34 71
-107 96 -198 24 -91 30 -307 10 -356 -18 -41 -24 -28 -10 20 18 61 12 237 -11
326 -23 89 -59 163 -94 196 -30 28 -93 39 -136 24 -17 -6 -31 -7 -31 -2 0 15
23 20 87 17 50 -2 68 -8 89 -27z m-316 -34 c-175 -38 -311 -201 -376 -452 -21
-80 -26 -124 -28 -234 0 -74 3 -153 7 -175 7 -32 6 -38 -4 -28 -21 20 -24 252
-5 359 32 184 119 363 219 450 58 51 153 94 202 93 39 -1 39 -1 -15 -13z"/>
<path d="M26030 20823 c-28 -10 -69 -56 -79 -87 -13 -43 -44 -236 -39 -242 3
-2 14 53 26 123 22 132 37 166 83 191 23 12 52 12 174 -3 22 -2 11 2 -25 10
-68 15 -114 17 -140 8z"/>
<path d="M27759 20781 l-39 -39 0 -1752 0 -1752 39 -39 39 -39 303 0 c333 0
337 1 376 59 l23 34 0 1737 0 1737 -23 34 c-39 58 -43 59 -376 59 l-303 0 -39
-39z m661 16 c13 -7 35 -28 47 -46 l23 -34 0 -1724 c0 -1882 4 -1755 -56
-1802 -26 -20 -38 -21 -321 -21 -243 0 -299 3 -323 15 -64 33 -60 -97 -60
1805 0 1896 -4 1771 58 1804 37 20 593 23 632 3z"/>
<path d="M29493 20800 c-68 -41 -63 102 -63 -1812 0 -1701 0 -1734 20 -1765
37 -61 48 -63 370 -63 322 0 333 2 370 63 20 31 20 64 20 1765 0 1914 5 1771
-63 1812 -30 19 -52 20 -327 20 -275 0 -297 -1 -327 -20z m647 -5 c64 -33 60
97 60 -1805 0 -1902 4 -1772 -60 -1805 -24 -12 -79 -15 -320 -15 -241 0 -296
3 -320 15 -64 33 -60 -97 -60 1805 0 1896 -4 1771 58 1804 41 23 599 23 642 1z"/>
<path d="M31222 20800 c-66 -41 -62 84 -62 -1810 0 -1894 -4 -1769 62 -1810
31 -19 50 -20 331 -20 324 0 336 2 373 57 18 27 19 76 19 1773 0 1697 -1 1746
-19 1773 -37 55 -49 57 -373 57 -281 0 -300 -1 -331 -20z m659 -13 c19 -13 39
-38 46 -57 17 -50 17 -3430 0 -3480 -7 -20 -27 -44 -47 -58 -34 -23 -34 -23
-336 -20 l-302 3 -26 24 c-15 14 -31 41 -37 60 -7 24 -9 599 -7 1753 l3 1717
21 28 c38 51 47 53 360 53 287 0 292 0 325 -23z"/>
<path d="M33194 20810 c-11 -4 -33 -22 -47 -40 l-27 -32 0 -1748 0 -1749 31
-36 c17 -19 35 -35 39 -35 4 0 -7 15 -26 34 l-34 34 0 1751 0 1751 29 32 29
33 304 3 c269 3 307 1 335 -14 68 -36 63 99 63 -1804 0 -1510 -2 -1726 -15
-1754 -29 -60 -31 -60 -365 -66 l-305 -6 300 -2 c278 -2 302 -1 331 17 69 42
64 -99 64 1811 0 1910 5 1769 -64 1811 -29 17 -54 19 -326 18 -162 0 -304 -4
-316 -9z"/>
<path d="M34869 20805 c-14 -8 -35 -27 -45 -42 -18 -27 -19 -77 -19 -1773 0
-1697 1 -1746 19 -1773 37 -55 49 -57 373 -57 281 0 300 1 331 20 66 41 62
-84 62 1810 0 1894 4 1769 -62 1810 -31 19 -49 20 -333 20 -239 -1 -305 -4
-326 -15z m649 -15 c66 -41 62 83 62 -1800 0 -1837 2 -1749 -50 -1795 -21 -19
-38 -20 -324 -23 -302 -3 -302 -3 -336 20 -20 14 -40 38 -47 58 -17 50 -17
3430 0 3480 7 19 27 44 46 57 33 23 38 23 325 23 274 0 293 -1 324 -20z"/>
<path d="M36583 20800 c-68 -41 -63 102 -63 -1812 0 -1701 0 -1734 20 -1765
37 -61 48 -63 370 -63 322 0 333 2 370 63 20 31 20 64 20 1765 0 1914 5 1771
-63 1812 -30 19 -52 20 -327 20 -275 0 -297 -1 -327 -20z m647 -5 c64 -33 60
97 60 -1805 0 -1902 4 -1772 -60 -1805 -24 -12 -79 -15 -320 -15 -241 0 -296
3 -320 15 -64 33 -60 -97 -60 1805 0 1896 -4 1771 58 1804 41 23 599 23 642 1z"/>
<path d="M38320 20807 c-13 -7 -35 -28 -47 -46 l-23 -34 0 -1737 0 -1737 23
-34 c39 -58 43 -59 376 -59 l303 0 39 39 39 39 0 1752 0 1752 -39 39 -39 39
-303 0 c-223 0 -311 -4 -329 -13z m640 -12 c64 -33 60 97 60 -1805 0 -1902 4
-1772 -60 -1805 -24 -12 -80 -15 -325 -15 l-295 0 -38 34 -37 34 0 1752 0
1752 37 34 38 34 295 0 c245 0 301 -3 325 -15z"/>
<path d="M26241 20796 c7 -6 270 -48 275 -44 2 3 -55 15 -128 27 -135 22 -155
24 -147 17z"/>
<path d="M26580 20737 c71 -17 96 -31 114 -65 9 -15 15 -22 16 -17 0 18 -30
55 -58 69 -15 8 -50 17 -77 20 l-50 5 55 -12z"/>
<path d="M26682 20439 c-19 -110 -32 -202 -30 -205 6 -6 71 381 67 394 -2 6
-19 -79 -37 -189z"/>
<path d="M14370 20500 c-20 -13 -13 -16 48 -24 56 -7 68 3 27 22 -31 14 -55
15 -75 2z"/>
<path d="M25861 20229 c-24 -137 -41 -252 -39 -254 2 -3 24 108 47 246 24 137
41 252 39 254 -2 3 -24 -108 -47 -246z"/>
<path d="M14407 20433 c-22 -21 8 -84 33 -68 16 10 12 62 -6 69 -19 7 -19 7
-27 -1z"/>
<path d="M14184 20386 c-10 -26 1 -51 21 -51 23 0 32 30 15 50 -16 19 -29 19
-36 1z"/>
<path d="M26601 19969 c-24 -137 -41 -252 -39 -254 2 -3 24 108 47 246 24 137
41 252 39 254 -2 3 -24 -108 -47 -246z"/>
<path d="M25771 19709 c-24 -137 -41 -252 -39 -254 2 -3 24 108 47 246 24 137
41 252 39 254 -2 3 -24 -108 -47 -246z"/>
<path d="M26511 19449 c-24 -137 -41 -252 -39 -254 2 -3 24 108 47 246 24 137
41 252 39 254 -2 3 -24 -108 -47 -246z"/>
<path d="M25681 19189 c-24 -137 -41 -252 -39 -254 2 -3 24 108 47 246 24 137
41 252 39 254 -2 3 -24 -108 -47 -246z"/>
<path d="M15920 19328 c-196 -42 -392 -134 -426 -200 -14 -27 -14 -31 2 -49 9
-10 29 -19 43 -19 21 0 26 5 28 27 1 33 27 55 115 99 87 44 186 71 309 84 111
12 135 9 145 -23 6 -21 7 -21 30 7 30 34 30 51 2 70 -26 18 -172 21 -248 4z"/>
<path d="M26441 19044 c-13 -74 -21 -137 -18 -140 2 -2 14 57 26 132 13 74 21
137 18 140 -2 2 -14 -57 -26 -132z"/>
<path d="M25591 18669 c-24 -137 -41 -252 -39 -254 2 -3 24 108 47 246 24 137
41 252 39 254 -2 3 -24 -108 -47 -246z"/>
<path d="M26396 18784 c-10 -58 -16 -108 -13 -110 2 -2 12 43 21 102 10 58 16
108 13 110 -2 2 -12 -43 -21 -102z"/>
<path d="M26351 18524 c-13 -74 -21 -137 -18 -140 2 -2 14 57 26 132 13 74 21
137 18 140 -2 2 -14 -57 -26 -132z"/>
<path d="M25501 18149 c-24 -137 -41 -252 -39 -254 2 -3 24 108 47 246 24 137
41 252 39 254 -2 3 -24 -108 -47 -246z"/>
<path d="M26306 18264 c-10 -58 -16 -108 -13 -110 2 -2 12 43 21 102 10 58 16
108 13 110 -2 2 -12 -43 -21 -102z"/>
<path d="M26261 18004 c-13 -74 -21 -137 -18 -140 2 -2 14 57 26 132 13 74 21
137 18 140 -2 2 -14 -57 -26 -132z"/>
<path d="M25431 17744 c-13 -74 -21 -137 -18 -140 2 -2 14 57 26 132 13 74 21
137 18 140 -2 2 -14 -57 -26 -132z"/>
<path d="M12335 17853 c-70 -6 -83 -12 -94 -43 -9 -27 7 -81 144 -488 94 -278
161 -462 172 -469 13 -10 234 -13 1030 -13 l1013 0 11 24 c9 18 8 31 -2 52
-24 49 -47 54 -259 54 l-195 0 -134 403 c-74 221 -140 412 -148 424 -8 12 -34
31 -57 43 -42 20 -55 20 -742 18 -384 -1 -717 -3 -739 -5z m820 -459 c32 -30
34 -77 3 -98 -35 -25 -67 -19 -105 19 -46 46 -44 85 6 101 42 14 63 9 96 -22z"/>
<path d="M26216 17744 c-10 -58 -16 -108 -13 -110 2 -2 12 43 21 102 10 58 16
108 13 110 -2 2 -12 -43 -21 -102z"/>
<path d="M26171 17484 c-13 -74 -21 -137 -18 -140 2 -2 14 57 26 132 13 74 21
137 18 140 -2 2 -14 -57 -26 -132z"/>
<path d="M25382 17464 c-21 -128 -21 -129 -2 -169 11 -22 32 -48 48 -57 28
-17 264 -62 285 -55 6 2 -50 13 -124 25 -146 24 -174 37 -201 93 -17 33 -17
40 3 153 11 65 18 123 16 129 -2 6 -13 -47 -25 -119z"/>
<path d="M26135 17285 c-3 -26 -4 -49 -2 -51 3 -3 8 16 12 41 3 26 4 49 2 51
-3 3 -8 -16 -12 -41z"/>
<path d="M26115 17200 c-10 -30 -52 -54 -109 -61 l-51 -6 45 -2 c29 0 56 6 77
19 31 18 59 57 50 67 -3 2 -8 -5 -12 -17z"/>
<path d="M25790 17165 c36 -7 88 -16 115 -19 44 -4 42 -3 -15 9 -36 7 -87 16
-115 19 -44 4 -42 3 15 -9z"/>
<path d="M33422 16749 c-77 -15 -150 -56 -213 -118 -267 -267 -77 -719 302
-721 116 0 250 63 322 152 204 252 68 629 -248 687 -67 12 -101 12 -163 0z
m213 -25 c111 -34 211 -130 257 -244 18 -43 22 -76 23 -150 0 -86 -3 -101 -32
-162 -56 -119 -154 -201 -277 -234 -183 -49 -386 46 -467 220 -80 170 -46 350
88 477 113 107 257 140 408 93z"/>
<path d="M33430 16577 c-50 -16 -143 -112 -158 -163 -29 -99 -6 -207 60 -274
56 -58 108 -80 194 -80 114 0 199 53 245 155 25 55 25 166 0 222 -26 57 -92
118 -148 137 -53 18 -141 19 -193 3z"/>
<path d="M35112 16749 c-116 -22 -234 -111 -291 -218 -126 -237 4 -538 264
-605 260 -68 510 108 532 374 24 280 -228 504 -505 449z m149 -9 c223 -42 378
-254 342 -467 -31 -179 -167 -315 -346 -346 -217 -37 -425 118 -468 347 -42
226 156 462 397 475 12 1 45 -4 75 -9z"/>
<path d="M35130 16591 c-14 -5 -43 -17 -65 -29 -142 -72 -177 -275 -69 -400
56 -66 104 -87 199 -87 91 0 137 19 191 77 55 58 69 95 69 183 0 69 -4 86 -27
127 -62 105 -192 161 -298 129z"/>
<path d="M36820 16749 c-101 -20 -211 -97 -268 -186 -50 -80 -65 -142 -60
-252 3 -85 8 -106 36 -163 20 -40 52 -84 87 -117 215 -204 551 -141 678 127
30 63 32 74 32 177 0 103 -2 114 -32 178 -84 178 -278 274 -473 236z m180 -15
c179 -40 308 -194 318 -379 9 -173 -82 -321 -247 -399 -60 -28 -75 -31 -161
-31 -88 0 -100 2 -170 36 -92 44 -159 109 -203 198 -30 62 -32 72 -32 176 0
100 2 115 28 167 71 144 216 241 370 247 15 1 59 -6 97 -15z"/>
<path d="M36822 16581 c-107 -37 -173 -131 -173 -247 0 -183 167 -305 345
-252 57 17 151 110 165 163 29 107 7 199 -65 272 -79 79 -168 100 -272 64z"/>
<path d="M38545 16746 c-127 -31 -233 -117 -288 -233 -30 -64 -32 -75 -32
-178 0 -103 2 -114 32 -177 44 -94 109 -160 202 -206 72 -36 79 -37 180 -37
101 0 110 2 181 36 174 83 268 260 239 449 -36 242 -277 404 -514 346z m166
-6 c129 -24 245 -115 306 -238 26 -52 28 -67 28 -167 0 -99 -3 -116 -27 -168
-53 -112 -171 -209 -289 -236 -136 -32 -290 18 -388 124 -219 237 -90 621 229
684 63 12 80 12 141 1z"/>
<path d="M38552 16582 c-215 -77 -234 -380 -30 -481 132 -66 281 -22 349 103
117 215 -90 460 -319 378z"/>
<path d="M13684 16702 c-182 -133 -327 -310 -462 -562 -202 -378 -352 -930
-417 -1527 -5 -41 -3 -63 3 -63 6 0 13 19 16 43 69 563 156 932 303 1292 150
369 374 676 590 813 24 15 43 30 43 35 0 16 -27 5 -76 -31z"/>
<path d="M20521 16119 c-105 -32 -171 -123 -171 -237 0 -145 121 -254 266
-239 233 24 301 334 99 452 -51 30 -138 41 -194 24z"/>
<path d="M32083 15203 c4 -71 7 -154 7 -185 l0 -58 3707 0 3707 0 44 21 c64
32 97 86 97 164 0 50 -5 69 -28 103 -15 23 -45 51 -67 62 -39 20 -47 20 -3756
20 l-3717 0 6 -127z"/>
<path d="M13922 14798 c-102 -305 -160 -628 -175 -965 -3 -64 -1 -83 10 -83
10 0 13 22 13 90 0 258 73 659 175 959 38 113 40 121 26 121 -5 0 -27 -55 -49
-122z"/>
<path d="M14214 13814 c-67 -68 -145 -118 -211 -135 l-43 -11 0 -60 c0 -92
-19 -196 -52 -278 -79 -200 -98 -313 -60 -360 24 -30 89 -37 136 -15 65 31
155 142 268 331 116 193 149 270 151 350 1 44 -4 60 -35 106 -19 30 -45 73
-57 96 -12 23 -25 41 -29 40 -4 -1 -35 -29 -68 -64z"/>
<path d="M36947 13805 c-250 -31 -259 -33 -288 -61 -16 -15 -33 -42 -38 -60
-12 -45 401 -3454 423 -3485 23 -34 68 -59 103 -59 51 0 524 59 565 70 54 15
88 61 88 119 0 73 -408 3418 -419 3440 -6 10 -24 31 -42 45 -39 34 -61 33
-392 -9z m373 10 c16 -9 37 -29 45 -46 11 -21 79 -546 220 -1717 113 -927 205
-1703 205 -1723 0 -43 -34 -90 -77 -107 -16 -6 -151 -25 -301 -43 -258 -30
-275 -31 -307 -16 -19 9 -41 27 -50 41 -12 18 -67 441 -221 1708 -112 926
-205 1699 -206 1720 -2 48 18 93 50 114 19 12 100 27 282 50 300 38 322 39
360 19z"/>
<path d="M33194 13816 c-17 -8 -40 -26 -52 -41 l-22 -28 0 -1753 0 -1752 26
-31 c41 -49 71 -53 386 -49 l288 3 37 38 38 37 3 1743 c2 1674 1 1743 -16
1776 -37 68 -52 71 -372 71 -216 -1 -292 -4 -316 -14z m626 -14 c20 -10 42
-32 52 -52 17 -33 18 -137 18 -1753 0 -1869 3 -1762 -56 -1802 -27 -18 -51
-20 -304 -23 -302 -4 -333 0 -374 49 l-26 31 0 1742 0 1743 22 28 c40 51 60
54 358 55 242 0 279 -2 310 -18z"/>
<path d="M34881 13813 c-19 -10 -44 -31 -55 -46 l-21 -28 0 -1702 0 -1702 5
1700 c5 1666 5 1701 25 1729 35 52 59 56 360 56 301 0 328 -4 362 -56 17 -27
18 -103 23 -1719 l5 -1690 3 1680 c2 1582 1 1682 -16 1714 -9 19 -30 44 -45
55 -27 20 -43 21 -320 24 -263 2 -295 1 -326 -15z"/>
<path d="M13520 13527 c-14 -5 -90 -12 -170 -15 l-145 -4 -23 -77 c-42 -134
-94 -227 -195 -344 -116 -134 -159 -204 -161 -256 -2 -77 71 -115 165 -87 81
23 164 77 343 222 255 207 279 248 242 419 -9 39 -16 84 -16 100 0 44 -10 54
-40 42z"/>
<path d="M39117 12399 c-10 -6 -29 -28 -42 -50 -28 -44 -36 -46 -106 -23 -84
28 -152 -7 -172 -86 -16 -63 46 -169 128 -220 l35 -22 0 -81 0 -82 25 59 c13
32 28 62 32 66 4 4 74 4 155 -1 170 -9 191 -17 261 -97 l47 -53 -1 -87 c0
-119 -13 -153 -64 -170 -83 -28 -353 -25 -429 4 -23 9 -21 -42 4 -108 24 -65
86 -128 155 -160 40 -18 67 -22 140 -22 106 0 185 26 245 80 60 55 66 78 46
200 -13 82 -15 112 -6 145 14 49 50 89 82 89 70 0 93 -79 38 -130 -18 -17 -30
-38 -30 -53 0 -14 -5 -38 -10 -53 -14 -35 -9 -38 37 -24 25 8 64 39 113 89
125 127 195 294 170 407 -36 162 -188 263 -421 280 -81 6 -97 11 -164 49 -41
24 -89 48 -106 54 -40 14 -138 14 -162 0z m217 -74 c53 -40 106 -58 201 -66
l90 -7 -90 2 c-95 2 -169 27 -225 74 -35 30 -16 27 24 -3z m-349 -46 c22 -6
16 -6 -21 -3 -60 6 -84 -10 -84 -57 0 -67 62 -128 180 -176 30 -12 48 -23 39
-23 -29 0 -153 68 -188 104 -27 27 -35 45 -39 84 -4 43 -1 51 19 66 25 17 46
18 94 5z m203 -815 c99 -8 106 -13 72 -57 -61 -78 -184 -48 -215 52 -7 22 -5
23 21 18 16 -4 71 -10 122 -13z"/>
<path d="M39057 12377 c-4 -10 -17 -22 -29 -27 -22 -9 -22 -9 -2 -9 24 -1 48
22 42 41 -3 8 -7 6 -11 -5z"/>
<path d="M39027 11783 c-14 -14 -6 -19 33 -20 22 -1 40 2 40 6 0 17 -59 29
-73 14z"/>
<path d="M39295 11751 c-3 -5 5 -13 17 -17 13 -3 35 -15 51 -26 22 -16 27 -17
27 -4 0 32 -79 72 -95 47z"/>
<path d="M39045 11710 c-12 -20 4 -62 23 -58 23 4 24 61 0 66 -9 2 -19 -2 -23
-8z"/>
<path d="M39290 11675 c-16 -19 -9 -49 12 -53 23 -4 43 35 27 54 -15 18 -23
18 -39 -1z"/>
<path d="M40667 10560 c-157 -58 -312 -164 -438 -298 -118 -126 -161 -230
-116 -280 22 -24 74 -35 122 -26 34 6 35 7 29 44 -7 44 15 100 75 188 78 115
203 197 343 226 96 20 139 20 164 1 27 -21 30 -19 48 25 55 139 -41 189 -227
120z"/>
<path d="M38316 10458 c-82 -126 -133 -238 -120 -260 4 -5 28 36 55 92 27 56
69 133 94 170 47 71 51 80 35 80 -6 0 -35 -37 -64 -82z"/>
<path d="M19130 10105 c-10 -12 -11 -53 -7 -168 13 -346 94 -660 257 -992 203
-415 506 -759 895 -1015 177 -116 228 -137 255 -105 23 28 3 49 -112 119 -700
423 -1135 1116 -1208 1926 -5 63 -10 140 -10 171 0 30 -5 60 -12 67 -17 17
-43 15 -58 -3z"/>
<path d="M27695 9945 c-15 -60 -46 -71 -100 -35 -32 21 -105 27 -105 9 0 -7
10 -9 25 -5 17 4 42 -2 76 -20 65 -32 93 -27 109 21 6 19 10 41 7 48 -2 6 -8
-1 -12 -18z"/>
<path d="M27763 9950 c-12 -5 -34 -27 -48 -50 -33 -52 -44 -56 -101 -36 -74
25 -127 3 -169 -69 -35 -60 -49 -138 -34 -200 9 -38 24 -61 63 -100 49 -48 98
-72 186 -89 29 -6 72 -71 91 -138 7 -24 16 -47 21 -52 27 -32 -6 -95 -64 -121
l-33 -16 32 6 c28 6 34 3 42 -18 12 -30 60 -71 122 -103 52 -26 70 -47 88
-105 20 -62 42 -74 135 -74 101 1 152 24 241 107 69 64 123 155 150 253 9 33
27 83 41 110 39 81 50 154 35 227 -19 92 -55 161 -123 234 -71 76 -136 110
-236 124 -56 8 -96 22 -173 62 -90 48 -107 53 -172 55 -40 2 -82 -1 -94 -7z"/>
<path d="M28060 9900 c43 -34 160 -63 160 -40 0 6 -15 10 -32 10 -18 0 -57 11
-86 25 -65 30 -75 31 -42 5z"/>
<path d="M33385 9746 c-203 -64 -331 -269 -295 -473 24 -139 99 -243 222 -309
l73 -39 120 0 c115 0 123 1 186 32 159 79 246 229 237 408 -9 175 -131 330
-297 379 -65 19 -190 20 -246 2z m236 -12 c199 -58 333 -275 290 -473 -27
-125 -122 -244 -238 -299 -52 -24 -70 -27 -164 -27 -101 0 -108 1 -181 38
-255 125 -310 456 -110 656 106 106 261 147 403 105z"/>
<path d="M33395 9576 c-55 -25 -109 -80 -133 -135 -23 -53 -21 -156 4 -211 45
-98 131 -152 244 -152 143 0 246 95 257 237 6 76 -9 133 -50 187 -72 94 -211
126 -322 74z"/>
<path d="M5390 9348 c-111 -75 -112 -303 -3 -398 28 -25 43 -30 83 -30 81 0
135 64 149 174 5 46 8 51 31 51 22 0 25 -5 33 -54 19 -132 110 -210 187 -159
108 71 113 298 9 392 -43 39 -65 44 -109 21 -37 -19 -66 -61 -82 -119 -11 -41
-15 -46 -40 -46 -23 0 -29 6 -38 38 -22 82 -93 152 -155 152 -18 0 -47 -10
-65 -22z m106 -13 c43 -18 68 -46 90 -104 14 -34 15 -47 6 -62 -7 -11 -8 -20
-2 -24 16 -10 11 -77 -9 -120 -55 -120 -159 -122 -225 -5 -60 106 -32 265 54
311 42 23 42 23 86 4z m373 -20 c95 -81 87 -324 -14 -372 -34 -16 -37 -16 -70
2 -24 12 -43 35 -60 69 -22 45 -25 62 -22 136 4 93 20 135 63 169 35 28 66 26
103 -4z"/>
<path d="M5439 9191 c-31 -25 -20 -36 17 -16 16 8 37 15 46 15 9 0 20 5 23 10
11 18 -62 11 -86 -9z"/>
<path d="M5473 9114 c-7 -20 9 -49 28 -49 22 0 18 59 -4 63 -9 2 -20 -4 -24
-14z"/>
<path d="M5733 9223 c-27 -10 -11 -18 42 -19 46 -1 54 1 44 12 -11 14 -61 18
-86 7z"/>
<path d="M5747 9144 c-11 -11 -8 -52 3 -59 17 -10 41 16 38 39 -3 21 -28 33
-41 20z"/>
<path d="M28594 9279 c-5 -9 -22 -23 -39 -32 -26 -14 -27 -16 -9 -17 28 0 68
32 62 50 -4 12 -6 12 -14 -1z"/>
<path d="M28552 9181 c12 -15 28 -37 35 -47 10 -17 12 -17 12 -2 1 19 -45 78
-61 78 -5 0 1 -13 14 -29z"/>
<path d="M5670 8893 c-24 -13 -65 -12 -120 3 -20 5 -23 4 -13 -6 19 -21 124
-25 148 -7 27 20 16 27 -15 10z"/>
<path d="M5350 8771 c22 -42 119 -111 155 -111 3 0 5 18 5 40 0 35 -3 40 -27
45 -16 3 -54 13 -85 23 -50 16 -56 17 -48 3z"/>
<path d="M24517 8480 c-21 -39 -74 -124 -117 -190 -58 -87 -76 -121 -67 -128
16 -13 516 -322 521 -322 2 0 7 39 11 88 15 197 44 202 128 22 24 -53 58 -112
75 -132 36 -41 62 -96 62 -132 0 -28 -52 -14 715 -191 l410 -94 18 22 c10 12
22 29 26 37 7 12 -158 119 -858 553 -478 295 -872 537 -877 537 -5 0 -26 -32
-47 -70z"/>
<path d="M32234 8263 c3 -42 6 -127 6 -190 l0 -113 1110 0 1110 0 0 138 c0 75
-3 161 -6 190 l-7 52 -1110 0 -1110 0 7 -77z"/>
<path d="M40279 7677 c-19 -13 -63 -44 -99 -69 -36 -25 -89 -58 -118 -74 l-53
-29 7 -255 6 -255 -23 -34 c-51 -75 9 -68 -952 -99 -476 -15 -869 -30 -873
-34 -29 -29 252 -1650 556 -3208 80 -409 95 -474 125 -537 41 -84 121 -163
203 -200 28 -14 52 -30 52 -36 0 -7 -9 -30 -19 -52 -29 -64 -79 -101 -178
-130 -189 -56 -221 -68 -259 -89 -33 -18 -39 -27 -39 -55 0 -43 31 -67 100
-80 28 -5 199 -8 382 -7 422 4 408 -3 408 196 0 52 -4 127 -8 166 l-9 71 31
12 c46 20 128 107 157 168 16 34 27 79 30 121 4 54 -145 2226 -172 2502 -13
134 8 42 71 -311 91 -507 170 -933 281 -1504 127 -655 139 -710 171 -774 35
-72 123 -160 196 -195 35 -18 57 -35 57 -45 0 -33 -64 -124 -100 -142 -19 -10
-91 -34 -160 -54 -161 -46 -228 -78 -236 -112 -9 -34 4 -54 52 -78 37 -19 59
-20 389 -20 378 -1 399 1 432 51 15 23 18 48 18 139 0 60 -4 140 -8 176 l-8
66 31 13 c50 21 128 104 157 167 19 41 28 79 30 133 3 41 -57 919 -131 1950
-75 1031 -140 1963 -146 2070 -5 107 -12 232 -14 278 l-5 83 40 15 c22 9 44
24 49 34 8 15 5 19 -18 22 -86 15 -330 59 -348 63 -13 3 -36 -5 -55 -18z"/>
<path d="M5715 7622 c-16 -10 -36 -30 -42 -43 -10 -20 -73 -255 -73 -273 0 -3
20 -6 44 -6 25 0 48 -4 51 -10 3 -5 -14 -24 -37 -41 -24 -18 -34 -29 -23 -24
11 4 37 9 58 12 33 5 37 3 37 -16 0 -13 -14 -30 -40 -47 -22 -15 -40 -28 -40
-30 0 -2 21 3 48 11 100 31 119 12 40 -41 l-45 -30 54 4 c30 3 53 0 53 -5 0
-11 -33 -43 -44 -43 -4 0 -29 -9 -55 -21 l-48 -20 -6 -69 c-6 -75 -35 -142
-70 -164 -12 -7 -45 -21 -73 -30 l-52 -17 -36 -144 c-40 -161 -44 -210 -18
-241 44 -55 55 -55 556 -4 403 41 419 45 450 93 8 12 39 108 70 212 30 105 93
320 140 480 48 159 86 306 86 326 0 71 -45 101 -167 114 -57 5 -63 4 -74 -16
-11 -22 -14 -22 -153 -16 -79 4 -164 10 -190 13 -41 6 -46 9 -40 28 3 12 7 25
8 31 1 8 -239 43 -309 44 -16 1 -43 -7 -60 -17z"/>
<path d="M4837 7358 c-33 -70 -58 -141 -72 -202 l-6 -29 -72 6 c-207 18 -267
20 -267 8 0 -7 19 -11 48 -11 190 0 782 -75 782 -99 0 -3 -9 -35 -21 -71 -43
-139 -61 -361 -38 -470 6 -28 22 -64 35 -80 l25 -29 -68 -20 c-114 -33 -143
-40 -273 -61 -153 -24 -441 -43 -534 -34 -55 5 -67 4 -61 -6 12 -20 415 -7
581 19 233 35 377 79 398 120 16 30 36 158 36 230 0 46 -1 48 -24 44 -35 -7
-56 31 -63 115 -8 102 4 180 33 209 23 23 23 24 5 42 -12 12 -52 25 -107 35
-112 20 -307 46 -350 46 -18 0 -35 4 -38 9 -10 15 23 121 64 208 21 45 35 85
30 88 -5 3 -24 -27 -43 -67z"/>
<path d="M29224 7305 c11 -43 54 -403 70 -580 44 -496 44 -1180 0 -1494 -6
-42 -7 -43 -38 -38 -628 113 -930 142 -1471 141 -384 -1 -547 -10 -815 -50
-158 -23 -152 -20 -148 -63 l3 -36 240 5 c421 9 1193 4 1395 -9 324 -20 629
-57 777 -93 37 -9 42 -14 48 -47 6 -35 14 -41 338 -241 557 -345 512 -320 581
-320 96 0 126 24 221 177 79 126 80 129 80 194 0 115 20 99 -610 488 l-556
344 7 221 c7 230 -4 524 -32 831 -16 180 -60 548 -70 578 -9 27 -27 20 -20 -8z"/>
<path d="M27443 7049 c-186 -210 -467 -470 -570 -528 -27 -14 -8 -25 19 -10
55 28 203 152 327 274 159 156 334 350 329 366 -2 6 -49 -40 -105 -102z"/>
<path d="M19655 7002 c-103 -35 -169 -77 -245 -158 -212 -227 -193 -559 43
-737 320 -242 817 -29 879 375 36 239 -111 460 -351 532 -89 26 -229 21 -326
-12z m310 4 c286 -76 432 -364 325 -637 -63 -159 -211 -289 -380 -334 -81 -22
-224 -19 -302 5 -175 54 -299 196 -328 375 -12 77 -2 174 27 248 25 66 100
173 151 217 58 50 162 105 233 124 69 19 209 20 274 2z"/>
<path d="M19697 6965 c-156 -43 -302 -173 -352 -314 -107 -304 101 -595 425
-594 138 0 256 49 357 146 92 88 133 165 152 288 27 165 -70 359 -217 433
-109 55 -254 71 -365 41z m258 -11 c123 -31 216 -108 273 -222 36 -74 37 -79
37 -187 0 -109 -1 -113 -39 -191 -88 -177 -259 -284 -456 -284 -180 0 -329 89
-403 239 -30 63 -32 72 -32 182 0 113 1 116 39 193 107 216 352 330 581 270z"/>
<path d="M19748 6756 c-187 -52 -268 -267 -150 -398 55 -61 104 -83 187 -82
86 0 155 32 209 96 34 39 66 117 66 160 0 81 -66 182 -138 211 -57 23 -122 28
-174 13z m189 -36 c72 -41 106 -99 106 -183 0 -76 -24 -127 -81 -179 -51 -46
-69 -55 -129 -68 -142 -31 -277 71 -276 209 0 144 113 251 263 251 54 0 74 -5
117 -30z"/>
<path d="M5701 6070 c-415 -33 -842 -134 -1203 -287 -91 -38 -106 -47 -99 -61
16 -30 55 -60 111 -86 50 -23 55 -24 58 -8 9 55 14 61 65 85 136 64 594 176
907 221 211 31 427 46 655 46 224 0 233 -1 260 -22 l28 -22 23 28 c28 32 31
63 7 70 -104 32 -589 53 -812 36z"/>
<path d="M5843 5275 c-77 -51 -153 -132 -179 -189 -25 -55 -68 -288 -159 -851
-127 -795 -406 -2713 -397 -2729 11 -20 22 36 62 329 160 1172 450 3047 495
3202 25 84 89 154 235 255 17 11 20 17 10 17 -8 1 -39 -15 -67 -34z"/>
<path d="M28650 4683 c-141 -113 -256 -251 -300 -363 -27 -68 -80 -336 -124
-625 -44 -286 -53 -374 -37 -359 6 6 23 89 36 185 70 481 119 728 164 824 50
107 184 256 315 351 16 11 27 27 24 34 -2 8 -31 -9 -78 -47z"/>
<path d="M6714 3256 c-47 -21 -103 -82 -133 -145 l-26 -56 0 -330 0 -330 28
-56 c33 -68 101 -134 153 -148 22 -6 78 -11 127 -11 l87 0 0 193 c0 105 -3
351 -7 545 l-6 352 -96 0 c-58 -1 -108 -6 -127 -14z"/>
<path d="M14940 2722 l0 -542 6131 0 6131 0 -6 27 c-6 30 -120 789 -136 913
-6 41 -13 84 -15 96 l-5 21 -3457 6 c-1902 4 -4625 10 -6050 14 l-2593 6 0
-541z"/>
<path d="M29360 3199 c0 -19 9 -227 20 -464 11 -236 20 -458 20 -493 l0 -62
2823 2 2822 3 55 22 c135 55 254 197 311 370 27 85 32 116 37 234 3 105 1 148
-11 190 -21 71 -67 139 -119 175 l-41 29 -961 6 c-529 4 -1860 10 -2958 14
l-1998 8 0 -34z"/>
<path d="M28201 3155 c0 -33 8 -253 19 -490 11 -236 20 -442 20 -457 0 -27 1
-28 61 -28 l61 0 -6 28 c-3 15 -33 209 -66 432 -33 223 -67 443 -74 490 l-14
85 -1 -60z"/>
<path d="M5500 1356 c-61 -27 -235 -29 -294 -3 -46 20 -56 13 -56 -43 -1 -63
-10 -67 -83 -36 -36 15 -75 38 -87 51 l-22 23 -41 -18 c-23 -10 -83 -26 -133
-35 -81 -15 -97 -15 -145 -2 -30 8 -62 17 -71 22 -16 6 -18 -1 -18 -80 0 -84
1 -88 30 -115 36 -33 66 -40 185 -40 50 0 138 -7 196 -15 191 -26 288 -29 339
-10 66 26 134 29 252 11 237 -35 352 -31 393 14 43 48 -8 90 -200 164 -133 51
-159 66 -183 105 l-17 27 -45 -20z"/>
</g>
</svg>
